<svg xmlns="http://www.w3.org/2000/svg" viewBox="0 0 512 512">
  <defs>
    <linearGradient id="bg" x1="0%" y1="0%" x2="100%" y2="100%">
      <stop offset="0%" style="stop-color:#6366f1"/>
      <stop offset="50%" style="stop-color:#8b5cf6"/>
      <stop offset="100%" style="stop-color:#ec4899"/>
    </linearGradient>
  </defs>
  <!-- Background -->
  <rect width="512" height="512" rx="100" fill="url(#bg)"/>
  <!-- Book -->
  <path d="M128 128 L256 160 L384 128 L384 352 L256 384 L128 352 Z" fill="white" opacity="0.95"/>
  <path d="M256 160 L256 384" stroke="#6366f1" stroke-width="4"/>
  <!-- Lines on book -->
  <line x1="160" y1="200" x2="240" y2="212" stroke="#ddd" stroke-width="8" stroke-linecap="round"/>
  <line x1="160" y1="240" x2="220" y2="248" stroke="#ddd" stroke-width="8" stroke-linecap="round"/>
  <line x1="160" y1="280" x2="230" y2="290" stroke="#ddd" stroke-width="8" stroke-linecap="round"/>
  <line x1="272" y1="212" x2="352" y2="200" stroke="#ddd" stroke-width="8" stroke-linecap="round"/>
  <line x1="272" y1="248" x2="340" y2="240" stroke="#ddd" stroke-width="8" stroke-linecap="round"/>
  <line x1="272" y1="290" x2="346" y2="280" stroke="#ddd" stroke-width="8" stroke-linecap="round"/>
  <!-- Star -->
  <polygon points="256,80 268,112 304,112 276,132 288,164 256,144 224,164 236,132 208,112 244,112" fill="#ffd700"/>
</svg>
